<svg width="425" height="431" viewBox="0 0 425 431" fill="none" xmlns="http://www.w3.org/2000/svg">
<rect x="327.834" y="69.3314" width="47.0541" height="456.567" transform="rotate(45 327.834 69.3314)" fill="#282828"/>
<rect x="237.228" y="155.49" width="53.3907" height="130.442" rx="3" transform="rotate(45 237.228 155.49)" fill="#515151"/>
<rect x="103.41" y="289.743" width="53.3907" height="148.001" rx="3" transform="rotate(45 103.41 289.743)" fill="#352D24"/>
<rect x="325.463" y="66.403" width="54.2569" height="105.318" rx="5" transform="rotate(45 325.463 66.403)" fill="#0A0A0A"/>
<rect x="197.992" y="78.0312" width="87.033" height="216.375" transform="rotate(-45 197.992 78.0312)" fill="#823030"/>
<rect x="272.992" y="44.125" width="10.7981" height="168.807" transform="rotate(-45 272.992 44.125)" fill="#A23939"/>
<rect x="219.992" y="99.625" width="14.3336" height="168.807" transform="rotate(-45 219.992 99.625)" fill="#6C2A2A"/>
<path d="M331.161 208.348C331.594 207.779 332.301 207.69 332.752 207.692C333.298 207.695 333.93 207.827 334.583 208.03C335.902 208.44 337.534 209.214 339.184 210.239C340.834 211.264 342.249 212.383 343.202 213.385C343.673 213.88 344.071 214.388 344.316 214.877C344.53 215.306 344.783 216.044 344.362 216.721C343.941 217.398 343.168 217.499 342.688 217.496C342.142 217.494 341.51 217.362 340.857 217.159C339.537 216.749 337.907 215.975 336.257 214.95C334.607 213.925 333.19 212.805 332.238 211.804C331.767 211.309 331.368 210.8 331.124 210.312C330.909 209.882 330.658 209.145 331.078 208.468L331.161 208.348Z" stroke="#414141" stroke-width="2"/>
<path d="M331.161 208.348C331.594 207.779 332.301 207.69 332.752 207.692C333.298 207.695 333.93 207.827 334.583 208.03C335.902 208.44 337.534 209.214 339.184 210.239C340.834 211.264 342.249 212.383 343.202 213.385C343.673 213.88 344.071 214.388 344.316 214.877C344.53 215.306 344.783 216.044 344.362 216.721C343.941 217.398 343.168 217.499 342.688 217.496C342.142 217.494 341.51 217.362 340.857 217.159C339.537 216.749 337.907 215.975 336.257 214.95C334.607 213.925 333.19 212.805 332.238 211.804C331.767 211.309 331.368 210.8 331.124 210.312C330.909 209.882 330.658 209.145 331.078 208.468L331.161 208.348Z" stroke="#414141" stroke-width="2"/>
<path d="M331.161 208.348C331.594 207.779 332.301 207.69 332.752 207.692C333.298 207.695 333.93 207.827 334.583 208.03C335.902 208.44 337.534 209.214 339.184 210.239C340.834 211.264 342.249 212.383 343.202 213.385C343.673 213.88 344.071 214.388 344.316 214.877C344.53 215.306 344.783 216.044 344.362 216.721C343.941 217.398 343.168 217.499 342.688 217.496C342.142 217.494 341.51 217.362 340.857 217.159C339.537 216.749 337.907 215.975 336.257 214.95C334.607 213.925 333.19 212.805 332.238 211.804C331.767 211.309 331.368 210.8 331.124 210.312C330.909 209.882 330.658 209.145 331.078 208.468L331.161 208.348Z" stroke="#414141" stroke-width="2"/>
<rect x="192.992" y="78.4749" width="94.7315" height="36.0728" rx="3" transform="rotate(-45 192.992 78.4749)" fill="#A7A7A7"/>
<rect x="332.992" y="218.475" width="94.7315" height="36.0728" rx="2" transform="rotate(-45 332.992 218.475)" fill="#A7A7A7"/>
<path d="M179.502 55L201.277 70.6943L195.197 76.7745L179.502 55Z" fill="#A7A7A7"/>
<path d="M196.502 39L218.277 54.6943L212.197 60.7745L196.502 39Z" fill="#A7A7A7"/>
<path d="M221.502 16L243.277 31.6943L237.197 37.7745L221.502 16Z" fill="#A7A7A7"/>
<path d="M237.502 -7.49814e-08L259.277 15.6943L253.197 21.7745L237.502 -7.49814e-08Z" fill="#A7A7A7"/>
<path d="M313.771 67.3848C315.385 67.614 316.559 68.8273 317.232 70.3128C317.912 71.8109 318.159 73.7208 317.878 75.6992C317.597 77.6779 316.828 79.4441 315.758 80.6939C314.697 81.9331 313.232 82.7714 311.618 82.5422C310.004 82.313 308.83 81.0997 308.156 79.6142C307.477 78.116 307.23 76.2054 307.511 74.2268C307.792 72.2484 308.561 70.4828 309.631 69.2331C310.692 67.9939 312.157 67.1556 313.771 67.3848Z" stroke="#414141" stroke-width="2"/>
<path d="M313.771 67.3848C315.385 67.614 316.559 68.8273 317.232 70.3128C317.912 71.8109 318.159 73.7208 317.878 75.6992C317.597 77.6779 316.828 79.4441 315.758 80.6939C314.697 81.9331 313.232 82.7714 311.618 82.5422C310.004 82.313 308.83 81.0997 308.156 79.6142C307.477 78.116 307.23 76.2054 307.511 74.2268C307.792 72.2484 308.561 70.4828 309.631 69.2331C310.692 67.9939 312.157 67.1556 313.771 67.3848Z" stroke="#414141" stroke-width="2"/>
<path d="M313.771 67.3848C315.385 67.614 316.559 68.8273 317.232 70.3128C317.912 71.8109 318.159 73.7208 317.878 75.6992C317.597 77.6779 316.828 79.4441 315.758 80.6939C314.697 81.9331 313.232 82.7714 311.618 82.5422C310.004 82.313 308.83 81.0997 308.156 79.6142C307.477 78.116 307.23 76.2054 307.511 74.2268C307.792 72.2484 308.561 70.4828 309.631 69.2331C310.692 67.9939 312.157 67.1556 313.771 67.3848Z" stroke="#414141" stroke-width="2"/>
<path d="M311.839 93.6727C313.467 93.7428 314.755 94.8353 315.57 96.2477C316.393 97.6721 316.826 99.5487 316.74 101.545C316.654 103.542 316.062 105.375 315.119 106.723C314.185 108.06 312.809 109.038 311.18 108.968C309.552 108.898 308.265 107.805 307.449 106.393C306.626 104.969 306.193 103.091 306.279 101.095C306.365 99.0983 306.958 97.2659 307.9 95.9175C308.834 94.5804 310.21 93.6026 311.839 93.6727Z" stroke="#414141" stroke-width="2"/>
<path d="M311.839 93.6727C313.467 93.7428 314.755 94.8353 315.57 96.2477C316.393 97.6721 316.826 99.5487 316.74 101.545C316.654 103.542 316.062 105.375 315.119 106.723C314.185 108.06 312.809 109.038 311.18 108.968C309.552 108.898 308.265 107.805 307.449 106.393C306.626 104.969 306.193 103.091 306.279 101.095C306.365 99.0983 306.958 97.2659 307.9 95.9175C308.834 94.5804 310.21 93.6026 311.839 93.6727Z" stroke="#414141" stroke-width="2"/>
<path d="M311.839 93.6727C313.467 93.7428 314.755 94.8353 315.57 96.2477C316.393 97.6721 316.826 99.5487 316.74 101.545C316.654 103.542 316.062 105.375 315.119 106.723C314.185 108.06 312.809 109.038 311.18 108.968C309.552 108.898 308.265 107.805 307.449 106.393C306.626 104.969 306.193 103.091 306.279 101.095C306.365 99.0983 306.958 97.2659 307.9 95.9175C308.834 94.5804 310.21 93.6026 311.839 93.6727Z" stroke="#414141" stroke-width="2"/>
<path d="M311.339 107.523C312.969 107.535 314.294 108.582 315.159 109.965C316.031 111.359 316.53 113.22 316.514 115.218C316.499 117.216 315.971 119.069 315.077 120.45C314.191 121.819 312.849 122.845 311.219 122.832C309.589 122.819 308.264 121.773 307.399 120.39C306.527 118.995 306.028 117.134 306.044 115.136C306.06 113.138 306.587 111.286 307.481 109.905C308.368 108.536 309.709 107.51 311.339 107.523Z" stroke="#414141" stroke-width="2"/>
<path d="M311.339 107.523C312.969 107.535 314.294 108.582 315.159 109.965C316.031 111.359 316.53 113.22 316.514 115.218C316.499 117.216 315.971 119.069 315.077 120.45C314.191 121.819 312.849 122.845 311.219 122.832C309.589 122.819 308.264 121.773 307.399 120.39C306.527 118.995 306.028 117.134 306.044 115.136C306.06 113.138 306.587 111.286 307.481 109.905C308.368 108.536 309.709 107.51 311.339 107.523Z" stroke="#414141" stroke-width="2"/>
<path d="M311.339 107.523C312.969 107.535 314.294 108.582 315.159 109.965C316.031 111.359 316.53 113.22 316.514 115.218C316.499 117.216 315.971 119.069 315.077 120.45C314.191 121.819 312.849 122.845 311.219 122.832C309.589 122.819 308.264 121.773 307.399 120.39C306.527 118.995 306.028 117.134 306.044 115.136C306.06 113.138 306.587 111.286 307.481 109.905C308.368 108.536 309.709 107.51 311.339 107.523Z" stroke="#414141" stroke-width="2"/>
<path d="M278.959 122.356C279.523 123.885 279.012 125.494 278.025 126.792C277.028 128.101 275.465 129.225 273.59 129.917C271.715 130.609 269.795 130.77 268.187 130.422C266.593 130.076 265.16 129.184 264.596 127.655C264.031 126.126 264.542 124.516 265.53 123.218C266.526 121.909 268.091 120.785 269.966 120.093C271.84 119.402 273.759 119.241 275.367 119.589C276.961 119.934 278.395 120.826 278.959 122.356Z" stroke="#414141" stroke-width="2"/>
<path d="M278.959 122.356C279.523 123.885 279.012 125.494 278.025 126.792C277.028 128.101 275.465 129.225 273.59 129.917C271.715 130.609 269.795 130.77 268.187 130.422C266.593 130.076 265.16 129.184 264.596 127.655C264.031 126.126 264.542 124.516 265.53 123.218C266.526 121.909 268.091 120.785 269.966 120.093C271.84 119.402 273.759 119.241 275.367 119.589C276.961 119.934 278.395 120.826 278.959 122.356Z" stroke="#414141" stroke-width="2"/>
<path d="M278.959 122.356C279.523 123.885 279.012 125.494 278.025 126.792C277.028 128.101 275.465 129.225 273.59 129.917C271.715 130.609 269.795 130.77 268.187 130.422C266.593 130.076 265.16 129.184 264.596 127.655C264.031 126.126 264.542 124.516 265.53 123.218C266.526 121.909 268.091 120.785 269.966 120.093C271.84 119.402 273.759 119.241 275.367 119.589C276.961 119.934 278.395 120.826 278.959 122.356Z" stroke="#414141" stroke-width="2"/>
<path d="M293.31 120.166C293.618 121.767 292.853 123.272 291.668 124.392C290.472 125.522 288.747 126.377 286.785 126.755C284.822 127.134 282.902 126.981 281.372 126.377C279.855 125.777 278.586 124.664 278.277 123.064C277.969 121.463 278.734 119.958 279.919 118.838C281.115 117.708 282.841 116.852 284.803 116.474C286.765 116.096 288.685 116.249 290.215 116.853C291.732 117.453 293.001 118.566 293.31 120.166Z" stroke="#414141" stroke-width="2"/>
<path d="M293.31 120.166C293.618 121.767 292.853 123.272 291.668 124.392C290.472 125.522 288.747 126.377 286.785 126.755C284.822 127.134 282.902 126.981 281.372 126.377C279.855 125.777 278.586 124.664 278.277 123.064C277.969 121.463 278.734 119.958 279.919 118.838C281.115 117.708 282.841 116.852 284.803 116.474C286.765 116.096 288.685 116.249 290.215 116.853C291.732 117.453 293.001 118.566 293.31 120.166Z" stroke="#414141" stroke-width="2"/>
<path d="M293.31 120.166C293.618 121.767 292.853 123.272 291.668 124.392C290.472 125.522 288.747 126.377 286.785 126.755C284.822 127.134 282.902 126.981 281.372 126.377C279.855 125.777 278.586 124.664 278.277 123.064C277.969 121.463 278.734 119.958 279.919 118.838C281.115 117.708 282.841 116.852 284.803 116.474C286.765 116.096 288.685 116.249 290.215 116.853C291.732 117.453 293.001 118.566 293.31 120.166Z" stroke="#414141" stroke-width="2"/>
<path d="M330.439 117.688C330.496 119.317 329.506 120.685 328.162 121.608C326.805 122.539 324.968 123.116 322.971 123.185C320.974 123.254 319.1 122.806 317.683 121.971C316.277 121.143 315.195 119.847 315.139 118.218C315.083 116.589 316.072 115.221 317.417 114.298C318.773 113.367 320.611 112.79 322.608 112.721C324.606 112.651 326.478 113.1 327.896 113.935C329.301 114.762 330.383 116.059 330.439 117.688Z" stroke="#414141" stroke-width="2"/>
<path d="M330.439 117.688C330.496 119.317 329.506 120.685 328.162 121.608C326.805 122.539 324.968 123.116 322.971 123.185C320.974 123.254 319.1 122.806 317.683 121.971C316.277 121.143 315.195 119.847 315.139 118.218C315.083 116.589 316.072 115.221 317.417 114.298C318.773 113.367 320.611 112.79 322.608 112.721C324.606 112.651 326.478 113.1 327.896 113.935C329.301 114.762 330.383 116.059 330.439 117.688Z" stroke="#414141" stroke-width="2"/>
<path d="M330.439 117.688C330.496 119.317 329.506 120.685 328.162 121.608C326.805 122.539 324.968 123.116 322.971 123.185C320.974 123.254 319.1 122.806 317.683 121.971C316.277 121.143 315.195 119.847 315.139 118.218C315.083 116.589 316.072 115.221 317.417 114.298C318.773 113.367 320.611 112.79 322.608 112.721C324.606 112.651 326.478 113.1 327.896 113.935C329.301 114.762 330.383 116.059 330.439 117.688Z" stroke="#414141" stroke-width="2"/>
<path d="M344.772 116.529C345.014 118.141 344.188 119.613 342.958 120.684C341.717 121.764 339.957 122.547 337.981 122.845C336.005 123.142 334.093 122.91 332.589 122.243C331.098 121.582 329.875 120.418 329.633 118.806C329.39 117.194 330.217 115.721 331.447 114.651C332.688 113.571 334.448 112.787 336.424 112.49C338.4 112.193 340.312 112.425 341.816 113.092C343.307 113.753 344.53 114.917 344.772 116.529Z" stroke="#414141" stroke-width="2"/>
<path d="M344.772 116.529C345.014 118.141 344.188 119.613 342.958 120.684C341.717 121.764 339.957 122.547 337.981 122.845C336.005 123.142 334.093 122.91 332.589 122.243C331.098 121.582 329.875 120.418 329.633 118.806C329.39 117.194 330.217 115.721 331.447 114.651C332.688 113.571 334.448 112.787 336.424 112.49C338.4 112.193 340.312 112.425 341.816 113.092C343.307 113.753 344.53 114.917 344.772 116.529Z" stroke="#414141" stroke-width="2"/>
<path d="M344.772 116.529C345.014 118.141 344.188 119.613 342.958 120.684C341.717 121.764 339.957 122.547 337.981 122.845C336.005 123.142 334.093 122.91 332.589 122.243C331.098 121.582 329.875 120.418 329.633 118.806C329.39 117.194 330.217 115.721 331.447 114.651C332.688 113.571 334.448 112.787 336.424 112.49C338.4 112.193 340.312 112.425 341.816 113.092C343.307 113.753 344.53 114.917 344.772 116.529Z" stroke="#414141" stroke-width="2"/>
<path d="M358.901 113.356C359.297 114.937 358.615 116.482 357.492 117.665C356.36 118.859 354.684 119.807 352.745 120.291C350.807 120.776 348.881 120.729 347.32 120.208C345.773 119.692 344.444 118.65 344.049 117.069C343.654 115.488 344.335 113.943 345.458 112.76C346.59 111.566 348.267 110.618 350.206 110.133C352.144 109.649 354.07 109.696 355.63 110.217C357.177 110.733 358.506 111.775 358.901 113.356Z" stroke="#414141" stroke-width="2"/>
<path d="M358.901 113.356C359.297 114.937 358.615 116.482 357.492 117.665C356.36 118.859 354.684 119.807 352.745 120.291C350.807 120.776 348.881 120.729 347.32 120.208C345.773 119.692 344.444 118.65 344.049 117.069C343.654 115.488 344.335 113.943 345.458 112.76C346.59 111.566 348.267 110.618 350.206 110.133C352.144 109.649 354.07 109.696 355.63 110.217C357.177 110.733 358.506 111.775 358.901 113.356Z" stroke="#414141" stroke-width="2"/>
<path d="M358.901 113.356C359.297 114.937 358.615 116.482 357.492 117.665C356.36 118.859 354.684 119.807 352.745 120.291C350.807 120.776 348.881 120.729 347.32 120.208C345.773 119.692 344.444 118.65 344.049 117.069C343.654 115.488 344.335 113.943 345.458 112.76C346.59 111.566 348.267 110.618 350.206 110.133C352.144 109.649 354.07 109.696 355.63 110.217C357.177 110.733 358.506 111.775 358.901 113.356Z" stroke="#414141" stroke-width="2"/>
<path d="M312.462 134.18C314.071 134.441 315.221 135.677 315.865 137.175C316.515 138.686 316.725 140.601 316.405 142.573C316.086 144.546 315.282 146.297 314.188 147.525C313.104 148.744 311.622 149.553 310.013 149.292C308.404 149.032 307.254 147.796 306.609 146.297C305.959 144.786 305.75 142.871 306.069 140.898C306.389 138.926 307.193 137.176 308.287 135.947C309.371 134.729 310.853 133.919 312.462 134.18Z" stroke="#414141" stroke-width="2"/>
<path d="M312.462 134.18C314.071 134.441 315.221 135.677 315.865 137.175C316.515 138.686 316.725 140.601 316.405 142.573C316.086 144.546 315.282 146.297 314.188 147.525C313.104 148.744 311.622 149.553 310.013 149.292C308.404 149.032 307.254 147.796 306.609 146.297C305.959 144.786 305.75 142.871 306.069 140.898C306.389 138.926 307.193 137.176 308.287 135.947C309.371 134.729 310.853 133.919 312.462 134.18Z" stroke="#414141" stroke-width="2"/>
<path d="M312.462 134.18C314.071 134.441 315.221 135.677 315.865 137.175C316.515 138.686 316.725 140.601 316.405 142.573C316.086 144.546 315.282 146.297 314.188 147.525C313.104 148.744 311.622 149.553 310.013 149.292C308.404 149.032 307.254 147.796 306.609 146.297C305.959 144.786 305.75 142.871 306.069 140.898C306.389 138.926 307.193 137.176 308.287 135.947C309.371 134.729 310.853 133.919 312.462 134.18Z" stroke="#414141" stroke-width="2"/>
<path d="M310.167 147.411C311.76 147.757 312.843 149.052 313.407 150.583C313.975 152.126 314.083 154.049 313.659 156.002C313.235 157.955 312.34 159.66 311.182 160.829C310.034 161.988 308.512 162.718 306.919 162.372C305.326 162.026 304.243 160.731 303.679 159.2C303.11 157.657 303.003 155.733 303.427 153.78C303.851 151.827 304.746 150.122 305.904 148.954C307.051 147.795 308.574 147.065 310.167 147.411Z" stroke="#414141" stroke-width="2"/>
<path d="M310.167 147.411C311.76 147.757 312.843 149.052 313.407 150.583C313.975 152.126 314.083 154.049 313.659 156.002C313.235 157.955 312.34 159.66 311.182 160.829C310.034 161.988 308.512 162.718 306.919 162.372C305.326 162.026 304.243 160.731 303.679 159.2C303.11 157.657 303.003 155.733 303.427 153.78C303.851 151.827 304.746 150.122 305.904 148.954C307.051 147.795 308.574 147.065 310.167 147.411Z" stroke="#414141" stroke-width="2"/>
<path d="M310.167 147.411C311.76 147.757 312.843 149.052 313.407 150.583C313.975 152.126 314.083 154.049 313.659 156.002C313.235 157.955 312.34 159.66 311.182 160.829C310.034 161.988 308.512 162.718 306.919 162.372C305.326 162.026 304.243 160.731 303.679 159.2C303.11 157.657 303.003 155.733 303.427 153.78C303.851 151.827 304.746 150.122 305.904 148.954C307.051 147.795 308.574 147.065 310.167 147.411Z" stroke="#414141" stroke-width="2"/>
<path d="M307.51 159.619C308.945 160.393 309.627 161.937 309.745 163.564C309.864 165.205 309.435 167.082 308.486 168.841C307.538 170.6 306.205 171.991 304.769 172.794C303.345 173.589 301.68 173.869 300.245 173.095C298.811 172.322 298.129 170.777 298.011 169.15C297.892 167.51 298.321 165.632 299.27 163.872C300.218 162.114 301.551 160.723 302.987 159.921C304.41 159.125 306.076 158.846 307.51 159.619Z" stroke="#414141" stroke-width="2"/>
<path d="M307.51 159.619C308.945 160.393 309.627 161.937 309.745 163.564C309.864 165.205 309.435 167.082 308.486 168.841C307.538 170.6 306.205 171.991 304.769 172.794C303.345 173.589 301.68 173.869 300.245 173.095C298.811 172.322 298.129 170.777 298.011 169.15C297.892 167.51 298.321 165.632 299.27 163.872C300.218 162.114 301.551 160.723 302.987 159.921C304.41 159.125 306.076 158.846 307.51 159.619Z" stroke="#414141" stroke-width="2"/>
<path d="M307.51 159.619C308.945 160.393 309.627 161.937 309.745 163.564C309.864 165.205 309.435 167.082 308.486 168.841C307.538 170.6 306.205 171.991 304.769 172.794C303.345 173.589 301.68 173.869 300.245 173.095C298.811 172.322 298.129 170.777 298.011 169.15C297.892 167.51 298.321 165.632 299.27 163.872C300.218 162.114 301.551 160.723 302.987 159.921C304.41 159.125 306.076 158.846 307.51 159.619Z" stroke="#414141" stroke-width="2"/>
<path d="M300.51 170.619C301.945 171.393 302.627 172.937 302.745 174.564C302.864 176.205 302.435 178.082 301.486 179.841C300.538 181.6 299.205 182.991 297.769 183.794C296.345 184.589 294.68 184.869 293.245 184.095C291.811 183.322 291.129 181.777 291.011 180.15C290.892 178.51 291.321 176.632 292.27 174.872C293.218 173.114 294.551 171.723 295.987 170.921C297.41 170.125 299.076 169.846 300.51 170.619Z" stroke="#414141" stroke-width="2"/>
<path d="M300.51 170.619C301.945 171.393 302.627 172.937 302.745 174.564C302.864 176.205 302.435 178.082 301.486 179.841C300.538 181.6 299.205 182.991 297.769 183.794C296.345 184.589 294.68 184.869 293.245 184.095C291.811 183.322 291.129 181.777 291.011 180.15C290.892 178.51 291.321 176.632 292.27 174.872C293.218 173.114 294.551 171.723 295.987 170.921C297.41 170.125 299.076 169.846 300.51 170.619Z" stroke="#414141" stroke-width="2"/>
<path d="M300.51 170.619C301.945 171.393 302.627 172.937 302.745 174.564C302.864 176.205 302.435 178.082 301.486 179.841C300.538 181.6 299.205 182.991 297.769 183.794C296.345 184.589 294.68 184.869 293.245 184.095C291.811 183.322 291.129 181.777 291.011 180.15C290.892 178.51 291.321 176.632 292.27 174.872C293.218 173.114 294.551 171.723 295.987 170.921C297.41 170.125 299.076 169.846 300.51 170.619Z" stroke="#414141" stroke-width="2"/>
<path d="M294.416 183.139C294.914 182.626 295.627 182.622 296.074 182.677C296.615 182.745 297.228 182.951 297.851 183.23C299.113 183.795 300.641 184.757 302.157 185.972C303.673 187.186 304.945 188.466 305.772 189.573C306.181 190.121 306.516 190.673 306.7 191.187C306.862 191.639 307.025 192.402 306.527 193.024C306.028 193.647 305.249 193.654 304.772 193.595C304.23 193.527 303.618 193.321 302.995 193.042C301.733 192.477 300.206 191.515 298.69 190.301C297.173 189.087 295.901 187.806 295.074 186.699C294.665 186.151 294.33 185.599 294.146 185.085C293.984 184.633 293.822 183.871 294.32 183.249L294.416 183.139Z" stroke="#414141" stroke-width="2"/>
<path d="M294.416 183.139C294.914 182.626 295.627 182.622 296.074 182.677C296.615 182.745 297.228 182.951 297.851 183.23C299.113 183.795 300.641 184.757 302.157 185.972C303.673 187.186 304.945 188.466 305.772 189.573C306.181 190.121 306.516 190.673 306.7 191.187C306.862 191.639 307.025 192.402 306.527 193.024C306.028 193.647 305.249 193.654 304.772 193.595C304.23 193.527 303.618 193.321 302.995 193.042C301.733 192.477 300.206 191.515 298.69 190.301C297.173 189.087 295.901 187.806 295.074 186.699C294.665 186.151 294.33 185.599 294.146 185.085C293.984 184.633 293.822 183.871 294.32 183.249L294.416 183.139Z" stroke="#414141" stroke-width="2"/>
<path d="M294.416 183.139C294.914 182.626 295.627 182.622 296.074 182.677C296.615 182.745 297.228 182.951 297.851 183.23C299.113 183.795 300.641 184.757 302.157 185.972C303.673 187.186 304.945 188.466 305.772 189.573C306.181 190.121 306.516 190.673 306.7 191.187C306.862 191.639 307.025 192.402 306.527 193.024C306.028 193.647 305.249 193.654 304.772 193.595C304.23 193.527 303.618 193.321 302.995 193.042C301.733 192.477 300.206 191.515 298.69 190.301C297.173 189.087 295.901 187.806 295.074 186.699C294.665 186.151 294.33 185.599 294.146 185.085C293.984 184.633 293.822 183.871 294.32 183.249L294.416 183.139Z" stroke="#414141" stroke-width="2"/>
<path d="M305.19 192.325C305.631 191.762 306.339 191.682 306.789 191.691C307.335 191.701 307.966 191.841 308.616 192.053C309.93 192.481 311.551 193.277 313.187 194.324C314.823 195.371 316.223 196.51 317.162 197.524C317.626 198.025 318.018 198.539 318.255 199.031C318.464 199.463 318.707 200.204 318.277 200.876C317.847 201.547 317.073 201.637 316.593 201.628C316.046 201.618 315.416 201.478 314.766 201.266C313.452 200.838 311.832 200.043 310.196 198.996C308.56 197.948 307.159 196.809 306.22 195.795C305.756 195.294 305.364 194.78 305.127 194.288C304.918 193.856 304.676 193.115 305.106 192.444L305.19 192.325Z" stroke="#414141" stroke-width="2"/>
<path d="M305.19 192.325C305.631 191.762 306.339 191.682 306.789 191.691C307.335 191.701 307.966 191.841 308.616 192.053C309.93 192.481 311.551 193.277 313.187 194.324C314.823 195.371 316.223 196.51 317.162 197.524C317.626 198.025 318.018 198.539 318.255 199.031C318.464 199.463 318.707 200.204 318.277 200.876C317.847 201.547 317.073 201.637 316.593 201.628C316.046 201.618 315.416 201.478 314.766 201.266C313.452 200.838 311.832 200.043 310.196 198.996C308.56 197.948 307.159 196.809 306.22 195.795C305.756 195.294 305.364 194.78 305.127 194.288C304.918 193.856 304.676 193.115 305.106 192.444L305.19 192.325Z" stroke="#414141" stroke-width="2"/>
<path d="M305.19 192.325C305.631 191.762 306.339 191.682 306.789 191.691C307.335 191.701 307.966 191.841 308.616 192.053C309.93 192.481 311.551 193.277 313.187 194.324C314.823 195.371 316.223 196.51 317.162 197.524C317.626 198.025 318.018 198.539 318.255 199.031C318.464 199.463 318.707 200.204 318.277 200.876C317.847 201.547 317.073 201.637 316.593 201.628C316.046 201.618 315.416 201.478 314.766 201.266C313.452 200.838 311.832 200.043 310.196 198.996C308.56 197.948 307.159 196.809 306.22 195.795C305.756 195.294 305.364 194.78 305.127 194.288C304.918 193.856 304.676 193.115 305.106 192.444L305.19 192.325Z" stroke="#414141" stroke-width="2"/>
<path d="M318.161 200.348C318.594 199.779 319.301 199.69 319.752 199.692C320.298 199.695 320.93 199.827 321.583 200.03C322.902 200.44 324.534 201.214 326.184 202.239C327.834 203.264 329.249 204.383 330.202 205.385C330.673 205.88 331.071 206.388 331.316 206.877C331.53 207.306 331.783 208.044 331.362 208.721C330.941 209.398 330.168 209.499 329.688 209.496C329.142 209.494 328.51 209.362 327.857 209.159C326.537 208.749 324.907 207.975 323.257 206.95C321.607 205.925 320.19 204.805 319.238 203.804C318.767 203.309 318.368 202.8 318.124 202.312C317.909 201.882 317.658 201.145 318.078 200.468L318.161 200.348Z" stroke="#414141" stroke-width="2"/>
<path d="M318.161 200.348C318.594 199.779 319.301 199.69 319.752 199.692C320.298 199.695 320.93 199.827 321.583 200.03C322.902 200.44 324.534 201.214 326.184 202.239C327.834 203.264 329.249 204.383 330.202 205.385C330.673 205.88 331.071 206.388 331.316 206.877C331.53 207.306 331.783 208.044 331.362 208.721C330.941 209.398 330.168 209.499 329.688 209.496C329.142 209.494 328.51 209.362 327.857 209.159C326.537 208.749 324.907 207.975 323.257 206.95C321.607 205.925 320.19 204.805 319.238 203.804C318.767 203.309 318.368 202.8 318.124 202.312C317.909 201.882 317.658 201.145 318.078 200.468L318.161 200.348Z" stroke="#414141" stroke-width="2"/>
<path d="M318.161 200.348C318.594 199.779 319.301 199.69 319.752 199.692C320.298 199.695 320.93 199.827 321.583 200.03C322.902 200.44 324.534 201.214 326.184 202.239C327.834 203.264 329.249 204.383 330.202 205.385C330.673 205.88 331.071 206.388 331.316 206.877C331.53 207.306 331.783 208.044 331.362 208.721C330.941 209.398 330.168 209.499 329.688 209.496C329.142 209.494 328.51 209.362 327.857 209.159C326.537 208.749 324.907 207.975 323.257 206.95C321.607 205.925 320.19 204.805 319.238 203.804C318.767 203.309 318.368 202.8 318.124 202.312C317.909 201.882 317.658 201.145 318.078 200.468L318.161 200.348Z" stroke="#414141" stroke-width="2"/>
<path d="M312.474 80.563C314.104 80.5912 315.419 81.6503 316.271 83.0412C317.13 84.444 317.611 86.3088 317.576 88.3068C317.542 90.3049 316.997 92.1527 316.089 93.525C315.19 94.8856 313.839 95.8985 312.209 95.8703C310.58 95.8421 309.265 94.783 308.413 93.3921C307.554 91.9892 307.073 90.1238 307.107 88.1256C307.142 86.1276 307.687 84.2806 308.594 82.9084C309.494 81.5477 310.845 80.5348 312.474 80.563Z" stroke="#414141" stroke-width="2"/>
<path d="M312.474 80.563C314.104 80.5912 315.419 81.6503 316.271 83.0412C317.13 84.444 317.611 86.3088 317.576 88.3068C317.542 90.3049 316.997 92.1527 316.089 93.525C315.19 94.8856 313.839 95.8985 312.209 95.8703C310.58 95.8421 309.265 94.783 308.413 93.3921C307.554 91.9892 307.073 90.1238 307.107 88.1256C307.142 86.1276 307.687 84.2806 308.594 82.9084C309.494 81.5477 310.845 80.5348 312.474 80.563Z" stroke="#414141" stroke-width="2"/>
<path d="M312.474 80.563C314.104 80.5912 315.419 81.6503 316.271 83.0412C317.13 84.444 317.611 86.3088 317.576 88.3068C317.542 90.3049 316.997 92.1527 316.089 93.525C315.19 94.8856 313.839 95.8985 312.209 95.8703C310.58 95.8421 309.265 94.783 308.413 93.3921C307.554 91.9892 307.073 90.1238 307.107 88.1256C307.142 86.1276 307.687 84.2806 308.594 82.9084C309.494 81.5477 310.845 80.5348 312.474 80.563Z" stroke="#414141" stroke-width="2"/>
<ellipse cx="128.27" cy="302.768" rx="3.66637" ry="3.7981" transform="rotate(45 128.27 302.768)" fill="#555555"/>
<ellipse cx="136.27" cy="294.768" rx="3.66637" ry="3.7981" transform="rotate(45 136.27 294.768)" fill="#555555"/>
<path d="M312.653 120.616C314.282 120.665 315.583 121.741 316.418 123.142C317.259 124.556 317.717 126.426 317.657 128.424C317.597 130.421 317.029 132.262 316.105 133.623C315.188 134.972 313.825 135.968 312.196 135.919C310.566 135.871 309.265 134.795 308.43 133.394C307.589 131.98 307.131 130.109 307.191 128.111C307.251 126.114 307.819 124.274 308.743 122.913C309.66 121.564 311.023 120.568 312.653 120.616Z" stroke="#414141" stroke-width="2"/>
<path d="M312.653 120.616C314.282 120.665 315.583 121.741 316.418 123.142C317.259 124.556 317.717 126.426 317.657 128.424C317.597 130.421 317.029 132.262 316.105 133.623C315.188 134.972 313.825 135.968 312.196 135.919C310.566 135.871 309.265 134.795 308.43 133.394C307.589 131.98 307.131 130.109 307.191 128.111C307.251 126.114 307.819 124.274 308.743 122.913C309.66 121.564 311.023 120.568 312.653 120.616Z" stroke="#414141" stroke-width="2"/>
<path d="M312.653 120.616C314.282 120.665 315.583 121.741 316.418 123.142C317.259 124.556 317.717 126.426 317.657 128.424C317.597 130.421 317.029 132.262 316.105 133.623C315.188 134.972 313.825 135.968 312.196 135.919C310.566 135.871 309.265 134.795 308.43 133.394C307.589 131.98 307.131 130.109 307.191 128.111C307.251 126.114 307.819 124.274 308.743 122.913C309.66 121.564 311.023 120.568 312.653 120.616Z" stroke="#414141" stroke-width="2"/>
<path d="M307.639 118.611C307.794 120.233 306.889 121.659 305.602 122.661C304.305 123.672 302.506 124.36 300.517 124.55C298.527 124.739 296.63 124.405 295.165 123.657C293.712 122.916 292.553 121.688 292.399 120.065C292.244 118.443 293.149 117.017 294.435 116.014C295.733 115.003 297.533 114.316 299.522 114.126C301.511 113.936 303.408 114.271 304.873 115.018C306.326 115.759 307.484 116.988 307.639 118.611Z" stroke="#414141" stroke-width="2"/>
<path d="M307.639 118.611C307.794 120.233 306.889 121.659 305.602 122.661C304.305 123.672 302.506 124.36 300.517 124.55C298.527 124.739 296.63 124.405 295.165 123.657C293.712 122.916 292.553 121.688 292.399 120.065C292.244 118.443 293.149 117.017 294.435 116.014C295.733 115.003 297.533 114.316 299.522 114.126C301.511 113.936 303.408 114.271 304.873 115.018C306.326 115.759 307.484 116.988 307.639 118.611Z" stroke="#414141" stroke-width="2"/>
<path d="M307.639 118.611C307.794 120.233 306.889 121.659 305.602 122.661C304.305 123.672 302.506 124.36 300.517 124.55C298.527 124.739 296.63 124.405 295.165 123.657C293.712 122.916 292.553 121.688 292.399 120.065C292.244 118.443 293.149 117.017 294.435 116.014C295.733 115.003 297.533 114.316 299.522 114.126C301.511 113.936 303.408 114.271 304.873 115.018C306.326 115.759 307.484 116.988 307.639 118.611Z" stroke="#414141" stroke-width="2"/>
<g filter="url(#filter0_d_0_1)">
<path d="M311.627 118.441C315.061 120.515 316.041 126.074 313.303 131.033C310.565 135.992 305.47 137.884 302.036 135.811C298.601 133.738 297.62 128.178 300.358 123.219C303.097 118.26 308.192 116.368 311.627 118.441Z" stroke="#9C9883" stroke-width="1.5"/>
<rect width="16.9265" height="16.4882" rx="1" transform="matrix(0.8561 0.51681 -0.483376 0.875413 300.962 120.308)" fill="#B3A34F"/>
</g>
<path d="M265.812 127.988C266.455 129.486 266.028 131.119 265.109 132.467C264.181 133.825 262.678 135.029 260.841 135.817C259.005 136.604 257.096 136.865 255.472 136.6C253.863 136.337 252.385 135.521 251.742 134.023C251.1 132.525 251.527 130.891 252.446 129.544C253.373 128.185 254.877 126.981 256.714 126.194C258.55 125.406 260.459 125.146 262.082 125.411C263.692 125.673 265.17 126.49 265.812 127.988Z" stroke="#414141" stroke-width="2"/>
<path d="M265.812 127.988C266.455 129.486 266.028 131.119 265.109 132.467C264.181 133.825 262.678 135.029 260.841 135.817C259.005 136.604 257.096 136.865 255.472 136.6C253.863 136.337 252.385 135.521 251.742 134.023C251.1 132.525 251.527 130.891 252.446 129.544C253.373 128.185 254.877 126.981 256.714 126.194C258.55 125.406 260.459 125.146 262.082 125.411C263.692 125.673 265.17 126.49 265.812 127.988Z" stroke="#414141" stroke-width="2"/>
<path d="M265.812 127.988C266.455 129.486 266.028 131.119 265.109 132.467C264.181 133.825 262.678 135.029 260.841 135.817C259.005 136.604 257.096 136.865 255.472 136.6C253.863 136.337 252.385 135.521 251.742 134.023C251.1 132.525 251.527 130.891 252.446 129.544C253.373 128.185 254.877 126.981 256.714 126.194C258.55 125.406 260.459 125.146 262.082 125.411C263.692 125.673 265.17 126.49 265.812 127.988Z" stroke="#414141" stroke-width="2"/>
<path d="M247.518 139.225C250.752 134.401 253.868 131.718 254.478 133.233C254.649 133.656 254.605 134.361 254.384 135.264L253.452 134.794C253.457 134.777 253.462 134.76 253.467 134.742C253.189 134.85 252.797 135.098 252.296 135.529C251.146 136.518 249.641 138.285 248.078 140.616C246.515 142.948 245.252 145.311 244.467 147.206C244.125 148.032 243.902 148.701 243.778 149.193C244.056 149.085 244.449 148.837 244.95 148.406C246.1 147.417 247.604 145.649 249.167 143.319C250.73 140.987 251.994 138.624 252.779 136.729C252.786 136.712 252.792 136.694 252.799 136.677L253.768 137.166C252.927 139.347 251.494 142.076 249.727 144.71L249.425 145.156C246.301 149.698 243.358 152.169 242.767 150.701C242.176 149.233 244.153 144.366 247.218 139.678L247.518 139.225Z" fill="#9C9883"/>
<rect width="6.02313" height="16.249" rx="1" transform="matrix(0.373654 0.927568 -0.556874 0.830597 249.041 136.885)" fill="url(#paint0_linear_0_1)"/>
<defs>
<filter id="filter0_d_0_1" x="293.348" y="116.842" width="22.7707" height="27.7722" filterUnits="userSpaceOnUse" color-interpolation-filters="sRGB">
<feFlood flood-opacity="0" result="BackgroundImageFix"/>
<feColorMatrix in="SourceAlpha" type="matrix" values="0 0 0 0 0 0 0 0 0 0 0 0 0 0 0 0 0 0 127 0" result="hardAlpha"/>
<feOffset dx="0.5" dy="1.5"/>
<feComposite in2="hardAlpha" operator="out"/>
<feColorMatrix type="matrix" values="0 0 0 0 0 0 0 0 0 0 0 0 0 0 0 0 0 0 0.25 0"/>
<feBlend mode="normal" in2="BackgroundImageFix" result="effect1_dropShadow_0_1"/>
<feBlend mode="normal" in="SourceGraphic" in2="effect1_dropShadow_0_1" result="shape"/>
</filter>
<linearGradient id="paint0_linear_0_1" x1="-3.81355" y1="9.20086" x2="8.61854" y2="3.87432" gradientUnits="userSpaceOnUse">
<stop offset="0.576923" stop-color="#B3A34F"/>
<stop offset="1" stop-color="#766A2E"/>
</linearGradient>
</defs>
</svg>
